<svg id="Layer_2" xmlns="http://www.w3.org/2000/svg" viewBox="0 0 100 11.84165">
    <g id="Layer_1-2">
        <g>
            <path d="M3.16623,3.16676H0V.26947H9.81482V3.16676h-3.1657V11.57219H3.16623V3.16676Z" />
            <path
                d="M10.14582,.26947h3.4829v3.92635h3.26118V.26947h3.48237V11.57219h-3.48237V7.09205h-3.26118v4.48014h-3.4829V.26947Z" />
            <path d="M21.20931,.26947h3.4829V11.57219h-3.4829V.26947Z" />
            <path
                d="M28.3003,7.77314c0,.28432,.04721,.53787,.12625,.74368,.25355,.68109,1.01315,.82325,1.66241,.82325,.5697,0,1.44069-.1899,1.44069-1.02906,0-.58561-.49066-.74368-2.43792-1.29747-1.78866-.50711-3.83087-.99724-3.83087-3.27709,0-2.61191,2.23211-3.73645,4.55917-3.73645,2.45384,0,4.6223,.93464,4.71725,3.68871h-3.29247c.06312-.42754-.12678-.71186-.41163-.90176-.28485-.20581-.68109-.28538-1.02906-.28538-.47475,0-1.25079,.12625-1.25079,.7596,.06365,.80734,1.67833,.98132,3.27709,1.42477s3.18214,1.18714,3.18214,3.26118c0,2.94397-2.70739,3.89453-5.22435,3.89453-1.28209,0-4.93897-.45937-4.9708-4.06851h3.4829Z" />
            <path d="M39.47412,.26947h3.4829V11.57219h-3.4829V.26947Z" />
            <path
                d="M46.56563,7.77314c0,.28432,.04721,.53787,.12625,.74368,.25355,.68109,1.01315,.82325,1.66241,.82325,.5697,0,1.44069-.1899,1.44069-1.02906,0-.58561-.49066-.74368-2.43792-1.29747-1.78866-.50711-3.83087-.99724-3.83087-3.27709,0-2.61191,2.23211-3.73645,4.55917-3.73645,2.45384,0,4.6223,.93464,4.71725,3.68871h-3.29247c.06312-.42754-.12678-.71186-.41163-.90176-.28485-.20581-.68109-.28538-1.02906-.28538-.47475,0-1.25079,.12625-1.25079,.7596,.06365,.80734,1.67833,.98132,3.27709,1.42477s3.18214,1.18714,3.18214,3.26118c0,2.94397-2.70739,3.89453-5.22435,3.89453-1.28209,0-4.93897-.45937-4.9708-4.06851h3.4829Z" />
            <path
                d="M57.73946,.26947h6.18923c2.9758,0,3.60915,1.67833,3.60915,2.83364,0,1.1394-.55378,1.75683-1.39295,2.2162,1.01315,.34797,1.96265,1.15531,1.96265,2.81772,0,2.26394-1.96265,3.43516-3.95712,3.43516h-6.41096V.26947Zm3.48184,4.40057h1.8364c.72883,0,1.18714-.20581,1.18714-.93358,0-.5697-.47422-.77551-1.18714-.77551h-1.8364v1.70909Zm0,4.21067h2.04221c.72883,0,1.36218-.20581,1.36218-1.07574,0-.66518-.39571-1.02906-1.21896-1.02906h-2.18543v2.10481Z" />
            <path
                d="M73.9159,0c3.43516,0,5.73093,2.46975,5.73093,5.92083s-2.29577,5.92083-5.73093,5.92083-5.73093-2.46975-5.73093-5.92083,2.29577-5.92083,5.73093-5.92083Zm0,9.02393c.8869,0,2.24803-.58667,2.24803-3.1031s-1.36112-3.1031-2.24803-3.1031-2.24803,.58667-2.24803,3.1031,1.36112,3.1031,2.24803,3.1031Z" />
            <path d="M80.16667,.26947h3.48184V8.6749h5.00316v2.89729h-8.485V.26947Z" />
            <path
                d="M89.18847,.26947h5.71395c3.76828,0,5.09758,2.7859,5.09758,5.63545,0,3.46699-1.8364,5.66727-5.77761,5.66727h-5.03392V.26947Zm3.48184,8.40543h1.36218c2.16846,0,2.4846-1.75683,2.4846-2.81772,0-.71186-.22173-2.69042-2.73816-2.69042h-1.10863v5.50814Z" />
        </g>
    </g>
</svg>