<?xml version="1.0" encoding="UTF-8"?><svg id="Layer_2" xmlns="http://www.w3.org/2000/svg"
    viewBox="0 0 87.96436 7.76953">
    <defs>
        <style>
            .cls-1 {
                fill: #ff00b1;
            }
        </style>
    </defs>
    <g id="Layer_1-2">
        <g>
            <path class="cls-1"
                d="M0,3.85547c0-.64844,.1543-1.17041,.46289-1.56641s.72461-.59375,1.24805-.59375c.46338,0,.82422,.15869,1.08203,.47656l.04688-.39844h1.02344V5.85938c0,.36963-.08398,.69141-.25195,.96484s-.4043,.48193-.70898,.625-.66162,.21484-1.07031,.21484c-.31006,0-.61182-.06201-.90625-.18555s-.51709-.2832-.66797-.47852l.5-.6875c.28125,.31494,.62256,.47266,1.02344,.47266,.29932,0,.53271-.08008,.69922-.24023s.25-.38721,.25-.68164v-.22656c-.26025,.29443-.60303,.44141-1.02734,.44141-.50781,0-.91846-.19873-1.23242-.5957s-.4707-.92383-.4707-1.58008v-.04688Zm1.12891,.08398c0,.3833,.07666,.68408,.23047,.90186s.36475,.32666,.63281,.32666c.34375,0,.58984-.12891,.73828-.38721v-1.78027c-.15088-.2583-.39453-.38721-.73047-.38721-.271,0-.48389,.11084-.63867,.33252s-.23242,.55322-.23242,.99365Z" />
            <path class="cls-1"
                d="M7.26172,5.57031c-.27881,.33838-.66406,.50781-1.15625,.50781-.45312,0-.79883-.13037-1.03711-.39062s-.35986-.64209-.36523-1.14453V1.77344h1.12891v2.7334c0,.44092,.20068,.66113,.60156,.66113,.38281,0,.646-.13281,.78906-.39893V1.77344h1.13281V6h-1.0625l-.03125-.42969Z" />
            <path class="cls-1"
                d="M10.78516,4.40234l.78125-2.62891h1.21094l-1.69922,4.88281-.09375,.22266c-.25244,.55225-.66943,.82812-1.25,.82812-.16406,0-.33057-.0249-.5-.07422v-.85547l.17188,.00391c.21338,0,.37305-.03271,.47852-.09766s.18799-.17334,.24805-.32422l.13281-.34766-1.48047-4.23828h1.21484l.78516,2.62891Z" />
            <path class="cls-1"
                d="M12.62891,5.44531c0-.17969,.06055-.32568,.18164-.4375s.27295-.16797,.45508-.16797c.18506,0,.33789,.05615,.45898,.16797s.18164,.25781,.18164,.4375c0,.17725-.06006,.3208-.17969,.43164s-.27344,.16602-.46094,.16602c-.18506,0-.3374-.05518-.45703-.16602s-.17969-.25439-.17969-.43164Z" />
            <path class="cls-1"
                d="M14.73047,3.85547c0-.64844,.1543-1.17041,.46289-1.56641s.72461-.59375,1.24805-.59375c.46338,0,.82422,.15869,1.08203,.47656l.04688-.39844h1.02344V5.85938c0,.36963-.08398,.69141-.25195,.96484s-.4043,.48193-.70898,.625-.66162,.21484-1.07031,.21484c-.31006,0-.61182-.06201-.90625-.18555s-.51709-.2832-.66797-.47852l.5-.6875c.28125,.31494,.62256,.47266,1.02344,.47266,.29932,0,.53271-.08008,.69922-.24023s.25-.38721,.25-.68164v-.22656c-.26025,.29443-.60303,.44141-1.02734,.44141-.50781,0-.91846-.19873-1.23242-.5957s-.4707-.92383-.4707-1.58008v-.04688Zm1.12891,.08398c0,.3833,.07666,.68408,.23047,.90186s.36475,.32666,.63281,.32666c.34375,0,.58984-.12891,.73828-.38721v-1.78027c-.15088-.2583-.39453-.38721-.73047-.38721-.271,0-.48389,.11084-.63867,.33252s-.23242,.55322-.23242,.99365Z" />
            <path class="cls-1"
                d="M21.9917,5.57031c-.27734,.33838-.66406,.50781-1.15576,.50781-.45312,0-.79883-.13037-1.03711-.39062s-.35986-.64209-.36523-1.14453V1.77344h1.12891v2.7334c0,.44092,.20068,.66113,.60107,.66113,.38281,0,.64648-.13281,.78906-.39893V1.77344h1.13281V6h-1.0625l-.03125-.42969Z" />
            <path class="cls-1"
                d="M25.23389,5.08984h2.06641v.91016h-3.50781v-.6875l1.98828-2.62891h-1.92969v-.91016h3.38672v.66504l-2.00391,2.65137Z" />
            <path class="cls-1"
                d="M29.06592,1.77344l.03516,.47266c.2998-.36719,.7041-.55078,1.21484-.55078,.54395,0,.91797,.21484,1.12109,.64453,.29688-.42969,.71973-.64453,1.26953-.64453,.45801,0,.7998,.1333,1.02344,.40039s.33594,.66846,.33594,1.20508v2.69922h-1.13281V3.30469c0-.23975-.04688-.41455-.14062-.52539s-.25879-.16602-.49609-.16602c-.33887,0-.57324,.16162-.70312,.48438l.00391,2.90234h-1.12891V3.30859c0-.24463-.04785-.42188-.14453-.53125s-.26074-.16406-.49219-.16406c-.32031,0-.55176,.13281-.69531,.39844v2.98828h-1.12891V1.77344h1.05859Z" />
            <path class="cls-1"
                d="M37.38232,6c-.05176-.10156-.08984-.22803-.11328-.37891-.27344,.30469-.62891,.45703-1.06641,.45703-.41406,0-.75684-.11963-1.0293-.35938s-.4082-.5415-.4082-.90625c0-.44775,.16602-.7915,.49805-1.03125s.81152-.36084,1.43945-.36328h.51953v-.24219c0-.19531-.0498-.35156-.15039-.46875s-.25879-.17578-.47461-.17578c-.19043,0-.33887,.04541-.44727,.13672s-.16211,.21631-.16211,.375h-1.12891c0-.24463,.0752-.47119,.22656-.67969s.36426-.37158,.64062-.49023,.58594-.17773,.92969-.17773c.52051,0,.93457,.13086,1.24023,.39258s.45898,.62939,.45898,1.10352v1.83203c.00293,.40088,.05859,.70459,.16797,.91016v.06641h-1.14062Zm-.93359-.78516c.16699,0,.32031-.03711,.46094-.11133s.24512-.17383,.3125-.29883v-.72656h-.42188c-.56543,0-.86621,.19531-.90234,.58594l-.00391,.06641c0,.14062,.0498,.25635,.14844,.34766s.23438,.13672,.40625,.13672Z" />
            <path class="cls-1"
                d="M40.26123,1.77344l.03516,.48828c.30176-.37744,.70703-.56641,1.21484-.56641,.44824,0,.78125,.13135,1,.39453s.33105,.65625,.33594,1.17969v2.73047h-1.12891V3.29688c0-.23975-.05176-.41357-.15625-.52148s-.27734-.16211-.51953-.16211c-.31738,0-.55566,.13525-.71484,.40625v2.98047h-1.12891V1.77344h1.0625Z" />
            <path class="cls-1"
                d="M50.10107,3.90625c-.02832,.6665-.19336,1.1958-.49414,1.58789s-.70508,.58789-1.21289,.58789c-.22363,0-.41699-.04834-.58008-.14453s-.28613-.23438-.36914-.41406c-.26074,.36475-.60059,.54688-1.01953,.54688-.37988,0-.6748-.16016-.88281-.48047s-.28613-.74365-.23438-1.26953c.04688-.42969,.15527-.81201,.32617-1.14648s.38574-.5918,.64648-.77148,.54199-.26953,.84375-.26953c.37207,0,.69043,.08594,.95312,.25781l.24609,.16797-.19922,2.25781c-.02637,.20557-.00293,.36328,.06836,.47266s.18555,.16406,.3418,.16406c.23926,0,.44043-.14014,.60156-.41992s.25-.64648,.26562-1.09961c.04395-.90869-.13867-1.60742-.54883-2.0957s-1.01758-.73242-1.82227-.73242c-.50293,0-.9502,.12744-1.34375,.38281s-.70312,.61768-.92969,1.08789-.35449,1.0083-.38281,1.61523c-.04199,.92188,.14355,1.63477,.55469,2.13867s1.02734,.75586,1.84766,.75586c.21582,0,.44238-.02393,.67969-.07227s.44141-.11279,.61328-.19336l.14844,.60156c-.15918,.104-.37305,.18799-.64258,.25195s-.54102,.0957-.81445,.0957c-.6875,0-1.27344-.13867-1.75781-.41602s-.8457-.68604-1.08398-1.22656-.3418-1.18555-.31055-1.93555c.03125-.71875,.19531-1.36328,.49219-1.93359s.70117-1.01123,1.21289-1.32227,1.08887-.4668,1.73242-.4668c.65332,0,1.21582,.14014,1.6875,.41992s.82422,.68018,1.05859,1.20117,.33691,1.12646,.30859,1.81641Zm-3.92578,.41406c-.02832,.34375,.00098,.60498,.08984,.7832s.23145,.26758,.42969,.26758c.12793,0,.24902-.05615,.36328-.16797s.20996-.27344,.28516-.48438l.16406-1.84766c-.10156-.03369-.20605-.05078-.3125-.05078-.2998,0-.53223,.12744-.69727,.38281s-.27246,.62744-.32227,1.11719Z" />
            <path class="cls-1"
                d="M50.69873,3.85547c0-.64844,.1543-1.17041,.46289-1.56641s.72461-.59375,1.24805-.59375c.46387,0,.82422,.15869,1.08203,.47656l.04688-.39844h1.02344V5.85938c0,.36963-.08398,.69141-.25195,.96484s-.4043,.48193-.70898,.625-.66113,.21484-1.07031,.21484c-.30957,0-.6123-.06201-.90625-.18555s-.5166-.2832-.66797-.47852l.5-.6875c.28125,.31494,.62207,.47266,1.02344,.47266,.2998,0,.53223-.08008,.69922-.24023s.25-.38721,.25-.68164v-.22656c-.26074,.29443-.60254,.44141-1.02734,.44141-.50781,0-.91895-.19873-1.23242-.5957s-.4707-.92383-.4707-1.58008v-.04688Zm1.12891,.08398c0,.3833,.07715,.68408,.23047,.90186s.36426,.32666,.63281,.32666c.34375,0,.58984-.12891,.73828-.38721v-1.78027c-.15137-.2583-.39453-.38721-.73047-.38721-.27051,0-.4834,.11084-.63867,.33252s-.23242,.55322-.23242,.99365Z" />
            <path class="cls-1"
                d="M56.48779,1.77344l.03516,.47266c.2998-.36719,.7041-.55078,1.21484-.55078,.54395,0,.91797,.21484,1.12109,.64453,.29688-.42969,.71973-.64453,1.26953-.64453,.45801,0,.7998,.1333,1.02344,.40039s.33594,.66846,.33594,1.20508v2.69922h-1.13281V3.30469c0-.23975-.04688-.41455-.14062-.52539s-.25879-.16602-.49609-.16602c-.33887,0-.57324,.16162-.70312,.48438l.00391,2.90234h-1.12891V3.30859c0-.24463-.04785-.42188-.14453-.53125s-.26074-.16406-.49219-.16406c-.32031,0-.55176,.13281-.69531,.39844v2.98828h-1.12891V1.77344h1.05859Z" />
            <path class="cls-1"
                d="M64.8042,6c-.05176-.10156-.08984-.22803-.11328-.37891-.27344,.30469-.62891,.45703-1.06641,.45703-.41406,0-.75684-.11963-1.0293-.35938s-.4082-.5415-.4082-.90625c0-.44775,.16602-.7915,.49805-1.03125s.81152-.36084,1.43945-.36328h.51953v-.24219c0-.19531-.0498-.35156-.15039-.46875s-.25879-.17578-.47461-.17578c-.19043,0-.33887,.04541-.44727,.13672s-.16211,.21631-.16211,.375h-1.12891c0-.24463,.0752-.47119,.22656-.67969s.36426-.37158,.64062-.49023,.58594-.17773,.92969-.17773c.52051,0,.93457,.13086,1.24023,.39258s.45898,.62939,.45898,1.10352v1.83203c.00293,.40088,.05859,.70459,.16797,.91016v.06641h-1.14062Zm-.93359-.78516c.16699,0,.32031-.03711,.46094-.11133s.24512-.17383,.3125-.29883v-.72656h-.42188c-.56543,0-.86621,.19531-.90234,.58594l-.00391,.06641c0,.14062,.0498,.25635,.14844,.34766s.23438,.13672,.40625,.13672Z" />
            <path class="cls-1"
                d="M66.63623,.67969c0-.16943,.05664-.30859,.16992-.41797s.26758-.16406,.46289-.16406c.19238,0,.34668,.05469,.46094,.16406s.17188,.24854,.17188,.41797c0,.17188-.05762,.3125-.17383,.42188s-.26855,.16406-.45898,.16406-.34277-.05469-.45898-.16406-.17383-.25-.17383-.42188Zm1.19922,5.32031h-1.13281V1.77344h1.13281V6Z" />
            <path class="cls-1" d="M69.95654,6h-1.13281V0h1.13281V6Z" />
            <path class="cls-1"
                d="M70.94482,5.44531c0-.17969,.06055-.32568,.18164-.4375s.27246-.16797,.45508-.16797c.18457,0,.33789,.05615,.45898,.16797s.18164,.25781,.18164,.4375c0,.17725-.05957,.3208-.17969,.43164s-.27344,.16602-.46094,.16602c-.18457,0-.33691-.05518-.45703-.16602s-.17969-.25439-.17969-.43164Z" />
            <path class="cls-1"
                d="M74.96826,5.16797c.20801,0,.37793-.05713,.50781-.17188s.19824-.26709,.20312-.45703h1.05859c-.00293,.28662-.08105,.54883-.23438,.78711s-.36426,.42334-.63086,.55469-.56152,.19727-.88477,.19727c-.60449,0-1.08105-.19189-1.42969-.57617s-.52344-.91455-.52344-1.5918v-.07422c0-.65088,.17285-1.17041,.51953-1.55859s.82129-.58203,1.42578-.58203c.52832,0,.95215,.15039,1.27148,.45117s.48145,.70117,.48633,1.20117h-1.05859c-.00488-.21973-.07324-.39844-.20312-.53613-.12988-.13721-.30176-.20605-.51562-.20605-.2627,0-.46191,.0957-.5957,.2876s-.20117,.50244-.20117,.93311v.11719c0,.43555,.06641,.74854,.19922,.93896s.33496,.28564,.60547,.28564Z" />
            <path class="cls-1"
                d="M77.20654,3.84766c0-.41943,.08105-.79297,.24219-1.12109s.39355-.58203,.69727-.76172,.65527-.26953,1.05664-.26953c.57031,0,1.03613,.17432,1.39648,.52344s.56152,.82275,.60352,1.42188l.00781,.28906c0,.64844-.18066,1.16846-.54297,1.56055s-.84766,.58789-1.45703,.58789-1.0957-.19531-1.45898-.58594-.54492-.92188-.54492-1.59375v-.05078Zm1.12891,.08008c0,.40186,.0752,.70898,.22656,.92139s.36719,.31885,.64844,.31885c.27344,0,.4873-.10498,.64062-.31494s.23047-.5459,.23047-1.00732c0-.39404-.07715-.69922-.23047-.91553s-.37012-.32471-.64844-.32471c-.27637,0-.48926,.10742-.64062,.32275s-.22656,.54834-.22656,.99951Z" />
            <path class="cls-1"
                d="M82.96436,1.77344l.03516,.47266c.2998-.36719,.7041-.55078,1.21484-.55078,.54395,0,.91797,.21484,1.12109,.64453,.29688-.42969,.71973-.64453,1.26953-.64453,.45801,0,.7998,.1333,1.02344,.40039s.33594,.66846,.33594,1.20508v2.69922h-1.13281V3.30469c0-.23975-.04688-.41455-.14062-.52539s-.25879-.16602-.49609-.16602c-.33887,0-.57324,.16162-.70312,.48438l.00391,2.90234h-1.12891V3.30859c0-.24463-.04785-.42188-.14453-.53125s-.26074-.16406-.49219-.16406c-.32031,0-.55176,.13281-.69531,.39844v2.98828h-1.12891V1.77344h1.05859Z" />
        </g>
    </g>
</svg>