<?xml version="1.0" encoding="UTF-8"?>
<svg" xmlns="http://www.w3.org/2000/svg" viewBox="0 0 100 10.92033">

    <g>
        <path
            d="M7.94175,9.60641c-.71517,.91965-1.82462,1.31392-2.96342,1.31392C1.898,10.92033,0,8.52533,0,5.5624,0,1.59128,2.78878,0,5.13878,0c2.6572,0,4.33604,1.44551,4.80321,3.89774h-3.08033c-.11691-.75871-.7592-1.29925-1.5184-1.29925-2.20422,0-2.13133,2.32162-2.13133,3.0368,0,.97835,.39427,2.68655,2.35048,2.68655,.74452,0,1.50372-.3796,1.66417-1.15347h-1.41616v-2.23406h4.26316v5.73753h-2.02959l-.10224-1.06542Z" />
        <path
            d="M20.24694,6.64299c0,2.89004-1.56193,4.27734-4.7445,4.27734s-4.75918-1.3873-4.75918-4.27734V.2485h3.21143V5.92684c0,1.0664,0,2.395,1.56193,2.395,1.5184,0,1.5184-1.3286,1.5184-2.395V.2485h3.21192V6.64299Z" />
        <path
            d="M24.55118,6.83279L20.88726,.2485h3.54749l1.73706,3.83904L27.98225,.2485h3.51814l-3.73729,6.58429v3.83904h-3.21192v-3.83904Z" />
        <path
            d="M44.11083,9.60641c-.71517,.91965-1.82462,1.31392-2.96342,1.31392-3.08033,0-4.97833-2.395-4.97833-5.35793,0-3.97112,2.78878-5.5624,5.13878-5.5624,2.6572,0,4.33604,1.44551,4.80321,3.89774h-3.08033c-.11691-.75871-.7592-1.29925-1.5184-1.29925-2.20422,0-2.13133,2.32162-2.13133,3.0368,0,.97835,.39427,2.68655,2.35048,2.68655,.74452,0,1.50372-.3796,1.66417-1.15347h-1.41616v-2.23406h4.26316v5.73753h-2.02959l-.10224-1.06542Z" />
        <path
            d="M56.41552,6.64299c0,2.89004-1.56145,4.27734-4.74401,4.27734s-4.75918-1.3873-4.75918-4.27734V.2485h3.21143V5.92684c0,1.0664,0,2.395,1.56242,2.395,1.5184,0,1.5184-1.3286,1.5184-2.395V.2485h3.21094V6.64299Z" />
        <path
            d="M56.96829,8.16041l4.84674-5.24053h-4.56889V.2485h8.80319V2.58431l-4.89077,5.41565h5.12361v2.67187h-9.31388v-2.51142Z" />
        <path
            d="M66.8506,.2485h4.56889l1.48905,6.13131h.02935l1.48905-6.13131h4.56987V10.67183h-3.0368V3.98579h-.02935l-1.80995,6.68604h-2.39402l-1.81092-6.68604h-.02935v6.68604h-3.03582V.2485Z" />
        <path
            d="M83.24284,.2485h3.13854l3.79599,10.42333h-3.32834l-.4383-1.48905h-3.31367l-.46765,1.48905h-3.22562L83.24284,.2485Zm2.5261,6.70071l-.93432-3.21192h-.02935l-1.0077,3.21192h1.97137Z" />
        <path
            d="M90.61274,.2485h3.2853l3.0368,5.57659h.02837V.2485h3.0368V10.67183h-3.12387l-3.19724-5.6935h-.02935v5.6935h-3.0368V.2485Z" />
    </g>

    </svg>