<?xml version="1.0" encoding="UTF-8"?><svg id="Layer_2" xmlns="http://www.w3.org/2000/svg"
    viewBox="0 0 66.96289 8.76562">
    <g id="Layer_1-2">
        <g>
            <path
                d="M1.92773,3.63281h.90234c.42969,0,.74805-.10742,.95508-.32227s.31055-.5,.31055-.85547c0-.34375-.10254-.61133-.30762-.80273s-.4873-.28711-.84668-.28711c-.32422,0-.5957,.08887-.81445,.2666s-.32812,.40918-.32812,.69434H.10547c0-.44531,.12012-.84473,.36035-1.19824S1.04199,.49805,1.47363,.29883s.90723-.29883,1.42676-.29883c.90234,0,1.60938,.21582,2.12109,.64746s.76758,1.02637,.76758,1.78418c0,.39062-.11914,.75-.35742,1.07812s-.55078,.58008-.9375,.75586c.48047,.17188,.83887,.42969,1.0752,.77344s.35449,.75,.35449,1.21875c0,.75781-.27637,1.36523-.8291,1.82227s-1.28418,.68555-2.19434,.68555c-.85156,0-1.54785-.22461-2.08887-.67383s-.81152-1.04297-.81152-1.78125H1.69336c0,.32031,.12012,.58203,.36035,.78516s.53613,.30469,.8877,.30469c.40234,0,.71777-.10645,.94629-.31934s.34277-.49512,.34277-.84668c0-.85156-.46875-1.27734-1.40625-1.27734h-.89648v-1.32422Z
             M10.24316,8.64844h-1.69336V2.12109l-2.02148,.62695V1.37109L10.06152,.10547h.18164V8.64844Z
             M17.07666,5.12109c0,1.17969-.24414,2.08203-.73242,2.70703s-1.20312,.9375-2.14453,.9375c-.92969,0-1.64062-.30664-2.13281-.91992s-.74414-1.49219-.75586-2.63672v-1.57031c0-1.19141,.24707-2.0957,.74121-2.71289s1.20605-.92578,2.13574-.92578,1.64062,.30566,2.13281,.91699,.74414,1.48926,.75586,2.63379v1.57031Zm-1.69336-1.72656c0-.70752-.09668-1.22266-.29004-1.54541s-.49512-.48389-.90527-.48389c-.39844,0-.69238,.15332-.88184,.46045s-.29004,.78662-.30176,1.43994v2.07617c0,.6958,.09473,1.21289,.28418,1.55127s.49316,.50732,.91113,.50732c.41406,0,.71289-.16211,.89648-.48682,.18359-.32422,.2793-.8208,.28711-1.48975V3.39453Z
             M17.89746,7.81641c0-.26953,.09082-.48828,.27246-.65625s.40918-.25195,.68262-.25195c.27734,0,.50684,.08398,.68848,.25195s.27246,.38672,.27246,.65625c0,.26562-.08984,.48145-.26953,.64746s-.41016,.24902-.69141,.24902c-.27734,0-.50586-.08301-.68555-.24902s-.26953-.38184-.26953-.64746Z 
             M24.22607,5.23828c-.44141,.43359-.95703,.65039-1.54688,.65039-.75391,0-1.35742-.25879-1.81055-.77637-.45264-.51758-.6792-1.21582-.6792-2.09473,0-.55859,.12207-1.07129,.36621-1.53809s.58447-.83008,1.02197-1.08984,.92969-.38965,1.47656-.38965c.5625,0,1.0625,.14062,1.5,.42188s.77734,.68555,1.01953,1.21289,.36523,1.13086,.36914,1.81055v.62695c0,1.42188-.35352,2.53906-1.06055,3.35156s-1.70898,1.24609-3.00586,1.30078l-.41602,.00586v-1.41211l.375-.00586c1.47266-.06641,2.26953-.75781,2.39062-2.07422Zm-1.13086-.64453c.27344,0,.50977-.07031,.70703-.21094s.3457-.31055,.44727-.50977v-.69727c0-.57422-.10938-1.01953-.32812-1.33594s-.51172-.47461-.87891-.47461c-.33984,0-.61914,.15527-.83789,.46582s-.32812,.7002-.32812,1.16895c0,.46484,.10742,.84668,.32031,1.14551s.51172,.44824,.89844,.44824Z 
             M32.16064,5.4375h.9668v1.36523h-.9668v1.8457h-1.69336v-1.8457h-3.49805l-.07617-1.06641L30.44971,.11719h1.71094V5.4375Zm-3.58008,0h1.88672V2.42578l-.11133,.19336-1.77539,2.81836Z 
             M38.62939,.0293V1.42383h-.16406c-.76562,.01172-1.38184,.21094-1.84863,.59766s-.74707,.92383-.84082,1.61133c.45312-.46094,1.02539-.69141,1.7168-.69141,.74219,0,1.33203,.26562,1.76953,.79688s.65625,1.23047,.65625,2.09766c0,.55469-.12012,1.05664-.36035,1.50586s-.58008,.79883-1.01953,1.04883-.93652,.375-1.49121,.375c-.89844,0-1.62402-.3125-2.17676-.9375s-.8291-1.45898-.8291-2.50195v-.60938c0-.92578,.1748-1.74316,.52441-2.45215s.85156-1.25781,1.50586-1.64648S37.48486,.0332,38.34814,.0293h.28125Zm-1.65234,4.27734c-.27344,0-.52148,.07129-.74414,.21338-.22266,.14258-.38672,.33057-.49219,.56445v.51465c0,.56543,.11133,1.00684,.33398,1.32471s.53516,.47656,.9375,.47656c.36328,0,.65723-.14307,.88184-.42969s.33691-.6582,.33691-1.11426c0-.46387-.11328-.83838-.33984-1.12305-.22656-.28418-.53125-.42676-.91406-.42676Z 
             M40.59814,7.81641c0-.26953,.09082-.48828,.27246-.65625s.40918-.25195,.68262-.25195c.27734,0,.50684,.08398,.68848,.25195s.27246,.38672,.27246,.65625c0,.26562-.08984,.48145-.26953,.64746s-.41016,.24902-.69141,.24902c-.27734,0-.50586-.08301-.68555-.24902s-.26953-.38184-.26953-.64746Z  
             M49.00732,2.38477c0,.41406-.10352,.78125-.31055,1.10156s-.49219,.57617-.85547,.76758c.41406,.19922,.74219,.47363,.98438,.82324s.36328,.76074,.36328,1.2334c0,.75781-.25781,1.35645-.77344,1.7959s-1.2168,.65918-2.10352,.65918-1.58984-.2207-2.10938-.66211-.7793-1.03906-.7793-1.79297c0-.47266,.12109-.88477,.36328-1.23633s.56836-.625,.97852-.82031c-.36328-.19141-.64746-.44727-.85254-.76758s-.30762-.6875-.30762-1.10156c0-.72656,.24219-1.30566,.72656-1.7373s1.14258-.64746,1.97461-.64746c.82812,0,1.48535,.21387,1.97168,.6416s.72949,1.00879,.72949,1.74316Zm-1.51758,3.80273c0-.37109-.10742-.66797-.32227-.89062s-.50391-.33398-.86719-.33398c-.35938,0-.64648,.11035-.86133,.33105s-.32227,.51855-.32227,.89355c0,.36328,.10547,.65625,.31641,.87891s.50391,.33398,.87891,.33398c.36719,0,.65527-.10742,.86426-.32227s.31348-.51172,.31348-.89062Zm-.17578-3.7207c0-.33203-.08789-.59863-.26367-.7998s-.42383-.30176-.74414-.30176c-.31641,0-.5625,.09766-.73828,.29297s-.26367,.46484-.26367,.80859c0,.33984,.08789,.61328,.26367,.82031s.42383,.31055,.74414,.31055,.56738-.10352,.74121-.31055,.26074-.48047,.26074-.82031Z 
             M55.3418,5.4375h.9668v1.36523h-.9668v1.8457h-1.69336v-1.8457h-3.49805l-.07617-1.06641L53.63086,.11719h1.71094V5.4375Zm-3.58008,0h1.88672V2.42578l-.11133,.19336-1.77539,2.81836Z 
             M60.12988,8.64844h-1.69336V2.12109l-2.02148,.62695V1.37109L59.94824,.10547h.18164V8.64844Z 
             M66.96289,5.12109c0,1.17969-.24414,2.08203-.73242,2.70703s-1.20312,.9375-2.14453,.9375c-.92969,0-1.64062-.30664-2.13281-.91992s-.74414-1.49219-.75586-2.63672v-1.57031c0-1.19141,.24707-2.0957,.74121-2.71289s1.20605-.92578,2.13574-.92578,1.64062,.30566,2.13281,.91699,.74414,1.48926,.75586,2.63379v1.57031Zm-1.69336-1.72656c0-.70752-.09668-1.22266-.29004-1.54541s-.49512-.48389-.90527-.48389c-.39844,0-.69238,.15332-.88184,.46045s-.29004,.78662-.30176,1.43994v2.07617c0,.6958,.09473,1.21289,.28418,1.55127s.49316,.50732,.91113,.50732c.41406,0,.71289-.16211,.89648-.48682,.18359-.32422,.2793-.8208,.28711-1.48975V3.39453Z" />
        </g>
    </g>
</svg>